<svg width="28px" height="56px" viewBox="0 0 28 56" version="1.1" xmlns="http://www.w3.org/2000/svg" xmlns:xlink="http://www.w3.org/1999/xlink"><g fill="none" fill-rule="nonzero"><path fill="#93979B" d="M22.362 41.282l.077.068a.75.75 0 01.067.983l-.067.077-1.091 1.09H24a1.5 1.5 0 011.493 1.356L25.5 45v7a1.5 1.5 0 01-1.356 1.493L24 53.5h-7a1.5 1.5 0 01-1.493-1.356L15.5 52v-7a1.5 1.5 0 011.356-1.493L17 43.5h2.64l-1.09-1.09a.75.75 0 01.984-1.128l.077.068.883.883.885-.883a.75.75 0 01.983-.068zm-2.614 7.968H17V52h2.75l-.002-2.75zm4.252 0h-2.752L21.25 52H24v-2.75zm-2.812-16a2.55 2.55 0 012.545 2.382l.005.168v3.444h-1.5V35.8c0-.541-.41-.987-.936-1.044l-.114-.006H4.8c-.541 0-.987.41-1.044.936l-.006.114v11.404c0 .541.41.987.936 1.044l.114.006h9.431v1.5H4.8a2.55 2.55 0 01-2.545-2.382l-.005-.168V35.8a2.55 2.55 0 012.382-2.545l.168-.005h16.388zM19.744 45H17v2.75h2.746L19.744 45zM24 45h-2.756l.002 2.75H24V45zm-3.391-7.25v1.5H5.5v-1.5h15.108z"/><path fill="#030316" d="M21.188 5.25a2.55 2.55 0 012.545 2.382l.005.168v3.444h-1.5V7.8c0-.541-.41-.987-.936-1.044l-.114-.006H4.8c-.541 0-.987.41-1.044.936L3.75 7.8v11.404c0 .541.41.987.936 1.044l.114.006h9.431v1.5H4.8a2.55 2.55 0 01-2.545-2.382l-.005-.168V7.8a2.55 2.55 0 012.382-2.545L4.8 5.25h16.388zm-.58 4.5v1.5H5.502v-1.5h15.108z"/><path fill="#DA005E" d="M22.362 13.282l.077.068a.75.75 0 01.067.983l-.067.077-1.091 1.09H24a1.5 1.5 0 011.493 1.356L25.5 17v7a1.5 1.5 0 01-1.5 1.5h-7a1.5 1.5 0 01-1.5-1.5v-7a1.5 1.5 0 011.5-1.5h2.64l-1.09-1.09a.75.75 0 01.984-1.128l.077.068.883.883.885-.883a.75.75 0 01.983-.068zm-2.614 7.968H17V24h2.75l-.002-2.75zm4.252 0h-2.752L21.25 24H24v-2.75zM19.744 17H17v2.75h2.746L19.744 17zM24 17h-2.756l.002 2.75H24V17z"/></g></svg>