<svg width="28px" height="56px" viewBox="0 0 28 56" version="1.1" xmlns="http://www.w3.org/2000/svg" xmlns:xlink="http://www.w3.org/1999/xlink"><g fill="none" fill-rule="nonzero"><path fill="#93979B" d="M11.499 30.432c.221.147.418.328.584.535l.118.16 1.902 2.802 1.83-2.767a2.563 2.563 0 013.401-.817l.15.091a2.578 2.578 0 01-.704 4.622l-.194.049-2.569.537h4.125a2.55 2.55 0 012.545 2.383l.005.167v10.834a2.55 2.55 0 01-2.382 2.544l-.168.006h-.619v1.47a.75.75 0 01-1.493.102l-.007-.102v-1.47h-8.4v1.47a.75.75 0 01-1.493.102l-.007-.102v-1.47H7.55a2.55 2.55 0 01-2.545-2.383L5 49.028V38.194a2.55 2.55 0 012.382-2.544l.168-.006h4.633l-2.627-.545a2.578 2.578 0 01-1.623-3.953 2.572 2.572 0 013.566-.714zm8.643 6.712H7.55c-.541 0-.987.41-1.044.936l-.006.114v10.834c0 .541.41.987.936 1.044l.114.006h12.592c.541 0 .987-.41 1.044-.936l.006-.114V38.194c0-.58-.47-1.05-1.05-1.05zm-6.319 3.034a3.45 3.45 0 110 6.9 3.45 3.45 0 010-6.9zm0 1.5a1.95 1.95 0 100 3.9 1.95 1.95 0 000-3.9zm3.436-9.789l-.075.1-1.44 2.179 2.535-.53c.06-.012.12-.03.177-.053l.084-.037.12-.07a1.078 1.078 0 00.108-1.706l-.111-.084a1.063 1.063 0 00-1.398.201zm-8.078.089a1.078 1.078 0 00.565 1.623l.114.03 2.591.536-1.491-2.197a1.072 1.072 0 00-.116-.143l-.067-.063-.11-.084a1.072 1.072 0 00-1.486.298z"/><path fill="#EDD60A" d="M7.933 3.146a2.572 2.572 0 014.15-.18l.118.161 1.902 2.802 1.83-2.767a2.563 2.563 0 013.401-.817l.15.091a2.578 2.578 0 01-.704 4.622l-.194.049L14.319 8a.732.732 0 01-.226.027.712.712 0 01-.165-.02l-4.372-.908a2.578 2.578 0 01-1.623-3.953zm10.724.542a1.063 1.063 0 00-1.398.201l-.075.1-1.44 2.179 2.535-.53c.06-.012.12-.03.177-.053l.084-.037.12-.07a1.078 1.078 0 00.108-1.706l-.111-.084zm-7.99-.008a1.072 1.072 0 00-1.644.677A1.078 1.078 0 009.746 5.6l.114.03 2.591.536L10.96 3.97a1.072 1.072 0 00-.116-.143l-.067-.063-.11-.084z"/><path fill="#030316" d="M20.142 7.644a2.55 2.55 0 012.55 2.55v10.834a2.55 2.55 0 01-2.55 2.55h-.619v1.47a.75.75 0 01-1.493.102l-.007-.102v-1.47h-8.4v1.47a.75.75 0 01-1.493.102l-.007-.102v-1.47H7.55a2.55 2.55 0 01-2.545-2.383L5 21.028V10.194a2.55 2.55 0 012.55-2.55zm0 1.5H7.55c-.58 0-1.05.47-1.05 1.05v10.834c0 .58.47 1.05 1.05 1.05h12.592c.58 0 1.05-.47 1.05-1.05V10.194c0-.58-.47-1.05-1.05-1.05zm-6.319 3.034a3.45 3.45 0 110 6.9 3.45 3.45 0 010-6.9zm0 1.5a1.95 1.95 0 100 3.9 1.95 1.95 0 000-3.9z"/></g></svg>