<svg width="28px" height="56px" viewBox="0 0 28 56" version="1.1" xmlns="http://www.w3.org/2000/svg" xmlns:xlink="http://www.w3.org/1999/xlink"><g fill="none" fill-rule="nonzero"><path fill="#7D8185" d="M22.78 35.22a.75.75 0 01.073.976l-.073.084-17 17a.75.75 0 01-1.133-.976l.073-.084 17-17a.75.75 0 011.06 0zM20 44v1.363A4.052 4.052 0 0118.7 53.25a4.05 4.05 0 01-1.164-7.93V44H20zM18.7 46.65a2.55 2.55 0 100 5.1 2.55 2.55 0 000-5.1zM9.999 34v1.43A4.052 4.052 0 018.8 43.35a4.05 4.05 0 01-1.264-7.899V34H10zM8.8 36.75a2.55 2.55 0 100 5.1 2.55 2.55 0 000-5.1z"/><path fill="#21BA72" d="M19.999 16v1.363A4.052 4.052 0 0118.7 25.25a4.05 4.05 0 01-1.164-7.93V16H20zM18.7 18.65a2.55 2.55 0 100 5.1 2.55 2.55 0 000-5.1zM9.999 6v1.43A4.052 4.052 0 018.8 15.35a4.05 4.05 0 01-1.264-7.899V6H10zM8.8 8.75a2.55 2.55 0 100 5.1 2.55 2.55 0 000-5.1z"/><path fill="#030316" d="M21.72 7.22a.75.75 0 011.133.976l-.073.084-17 17a.75.75 0 01-1.133-.976l.073-.084 17-17z"/></g></svg>