<svg width="28px" height="56px" viewBox="0 0 28 56" version="1.1" xmlns="http://www.w3.org/2000/svg" xmlns:xlink="http://www.w3.org/1999/xlink"><g fill="none" fill-rule="nonzero"><path fill="#93979B" d="M13.732 31.182l8.208 3.596v8.65c0 3.48-2.597 6.549-7.652 9.234l-.34.181-.709-.355c-5.152-2.638-7.799-5.644-7.799-9.06v-8.652l8.292-3.594zm-.003 1.636L6.94 35.76v7.669c0 2.725 2.276 5.311 6.965 7.715l.02.009.379-.21c4.015-2.276 6.023-4.714 6.132-7.293l.004-.221v-7.671l-6.711-2.94zm1.436 4.574a.75.75 0 01.068.977l-.073.084-.72.712v1.45l1.275-.736.258-.963a.75.75 0 01.81-.551l.109.02a.75.75 0 01.555.69l-.004.12-.021.109-.147.547.553.152a.75.75 0 01-.285 1.469l-.11-.022-.977-.267-1.256.724 1.276.737.963-.258a.75.75 0 01.882.425l.037.105a.75.75 0 01-.426.882l-.105.037-.547.146.145.555a.75.75 0 01-1.415.487l-.036-.105-.257-.98-1.256-.725v1.472l.706.705a.75.75 0 01.072.977l-.072.084a.75.75 0 01-.875.136l-.102-.063-.084-.073-.4-.4-.409.402a.75.75 0 01-1.128-.981l.073-.084.72-.713v-1.45l-1.276.737-.257.963a.75.75 0 01-.81.551l-.109-.02a.75.75 0 01-.555-.69l.004-.12.02-.11.148-.547-.554-.152a.75.75 0 01.286-1.468l.11.021.976.268 1.255-.725-1.275-.736-.962.258a.75.75 0 01-.882-.426l-.037-.105a.75.75 0 01.425-.882l.105-.036.549-.147-.146-.555a.75.75 0 011.414-.486l.036.105.257.98 1.255.724.001-1.471-.705-.706a.75.75 0 01-.073-.976l.073-.084a.75.75 0 01.874-.137l.102.064.085.073.401.401.407-.404a.75.75 0 011.06.005z"/><path fill="#030316" d="M21.94 6.778l-8.208-3.596L5.44 6.776v8.653c0 3.415 2.647 6.42 7.799 9.059l.709.355.34-.18c5.055-2.686 7.652-5.755 7.652-9.234V6.778zm-8.211-1.96l6.711 2.94v7.67l-.004.222c-.109 2.579-2.117 5.017-6.132 7.293l-.379.21-.02-.01C9.215 20.74 6.94 18.155 6.94 15.43V7.76l6.789-2.942z"/><path fill="#31C2A7" d="M15.165 9.392a.75.75 0 01.068.977l-.073.084-.72.712v1.45l1.275-.736.258-.963a.75.75 0 01.81-.551l.109.02a.75.75 0 01.555.69l-.004.12-.021.109-.147.547.553.152a.75.75 0 01-.285 1.469l-.11-.022-.977-.267-1.256.724 1.276.737.963-.258a.75.75 0 01.882.425l.037.105a.75.75 0 01-.426.882l-.105.037-.547.146.145.555a.75.75 0 01-1.415.487l-.036-.105-.257-.98-1.256-.725v1.472l.706.705a.75.75 0 01.072.977l-.072.084a.75.75 0 01-.875.136l-.102-.063-.084-.073-.4-.4-.409.402a.75.75 0 01-1.128-.981l.073-.084.72-.713v-1.45l-1.276.737-.257.963a.75.75 0 01-.81.551l-.109-.02a.75.75 0 01-.555-.69l.004-.12.02-.11.148-.547-.554-.152a.75.75 0 01.286-1.468l.11.021.976.268 1.255-.725-1.275-.736-.962.258a.75.75 0 01-.882-.426l-.037-.105a.75.75 0 01.425-.882l.105-.036.549-.147-.146-.555a.75.75 0 011.414-.486l.036.105.257.98 1.255.724.001-1.471-.705-.706a.75.75 0 01-.073-.976l.073-.084a.75.75 0 01.874-.137l.102.064.085.073.401.401.407-.404a.75.75 0 011.06.005z"/></g></svg>