<svg width="28px" height="56px" viewBox="0 0 28 56" version="1.1" xmlns="http://www.w3.org/2000/svg" xmlns:xlink="http://www.w3.org/1999/xlink"><g fill="none" fill-rule="nonzero"><path fill="#93979B" d="M18.54 31.951l-.035.098-1.751 4.022.245.148c3.732 2.337 6.248 6.77 6.483 10.562l.014.306.004.28a6.75 6.75 0 01-6.523 6.737l-.237.004-6-.01A6.75 6.75 0 014 47.349c0-3.907 2.586-8.671 6.525-11.13l.291-.175.055-.032-.858-3.472a.75.75 0 01.47-.885l.098-.028.096-.015 7.076-.608a.75.75 0 01.787.948zm-6.616 5.19C8.1 39.181 5.5 43.756 5.5 47.35a5.25 5.25 0 005.026 5.245l.216.005 6 .009A5.25 5.25 0 0022 47.365c.005-3.556-2.532-8.083-6.272-10.154l-.129-.069h-3.675zm7.4 6.11a.75.75 0 01.063.978l-.073.083-4.05 3.971a.75.75 0 01-.929.097l-.093-.07-2.659-2.35-2.375 1.963a.75.75 0 11-.956-1.156l2.87-2.373a.75.75 0 01.877-.056l.097.072 2.616 2.313 3.552-3.482a.75.75 0 011.06.01zm-2.698-10.646l-4.946.425.645 2.612h2.979l1.322-3.037z"/><path fill="#08BC08" d="M18.264 15.241a.75.75 0 011.123.988l-.073.083-4.05 3.971a.75.75 0 01-.929.097l-.093-.07-2.659-2.35-2.375 1.963a.75.75 0 11-.956-1.156l2.87-2.373a.75.75 0 01.877-.056l.097.072 2.616 2.313 3.552-3.482z"/><path fill="#030316" d="M17.753 3.003a.75.75 0 01.752 1.046l-1.751 4.022.245.148c3.833 2.4 6.383 7.011 6.497 10.868l.004.28a6.75 6.75 0 01-6.76 6.74l-6-.008A6.75 6.75 0 014 19.349c0-4.003 2.714-8.905 6.816-11.306l.055-.032-.858-3.472a.75.75 0 01.568-.913l.096-.015zm-2.154 6.139h-3.675C8.1 11.181 5.5 15.755 5.5 19.348a5.25 5.25 0 005.242 5.25l6 .009A5.25 5.25 0 0022 19.365c.005-3.642-2.657-8.305-6.548-10.302l.147.079zm1.027-4.537l-4.946.425.645 2.612h2.979l1.322-3.037z"/></g></svg>