<svg width="28px" height="56px" viewBox="0 0 28 56" version="1.1" xmlns="http://www.w3.org/2000/svg" xmlns:xlink="http://www.w3.org/1999/xlink"><g fill="none" fill-rule="nonzero"><path fill="#93979B" d="M14 32.25c5.385 0 9.75 4.365 9.75 9.75a9.72 9.72 0 01-2.266 6.25h1.56a.75.75 0 01.698.477l.03.099.957 4a.75.75 0 01-.627.917L24 53.75H4a.75.75 0 01-.743-.85l.019-.095 1.078-4a.75.75 0 01.613-.547l.11-.008 1.44.001A9.72 9.72 0 014.25 42c0-5.385 4.365-9.75 9.75-9.75zm8.451 17.5H5.652l-.673 2.5h18.07l-.598-2.5zM14 33.75a8.25 8.25 0 00-5.384 14.5h10.768l.188-.165A8.25 8.25 0 0014 33.75zm-1.411 4.5l2.829.004a2.62 2.62 0 01.23 5.174l-.17.028-.134.012-2.005.016v.401h2.88a.75.75 0 01.102 1.493l-.102.007h-2.88v1.12a.75.75 0 01-.648.743l-.102.007a.75.75 0 01-.743-.648l-.007-.102v-1.12H11a.75.75 0 01-.102-1.493l.102-.007h.839v-.39l-.833.007a.75.75 0 01-.748-.642l-.008-.102a.75.75 0 01.642-.748l.102-.007.845-.007V39a.75.75 0 01.648-.743l.102-.007zm2.75 1.5h-2v2.237l1.902-.013.043-.005a1.12 1.12 0 00.969-.991c.06-.574-.323-1.093-.81-1.21l-.105-.018z"/><path fill="#88C92D" d="M12.589 10.25l2.829.004a2.62 2.62 0 01.23 5.174l-.17.028-.134.012-2.005.016v.401h2.88a.75.75 0 01.102 1.493l-.102.007h-2.88v1.12a.75.75 0 01-.648.743l-.102.007a.75.75 0 01-.743-.648l-.007-.102v-1.12H11a.75.75 0 01-.102-1.493l.102-.007h.839v-.39l-.833.007a.75.75 0 01-.748-.642l-.008-.102a.75.75 0 01.642-.748l.102-.007.845-.007V11a.75.75 0 01.648-.743l.102-.007zm2.75 1.5h-2v2.237l1.902-.013.043-.005a1.12 1.12 0 00.969-.991c.06-.574-.323-1.093-.81-1.21l-.105-.018z"/><path fill="#030316" d="M14 4.25c5.385 0 9.75 4.365 9.75 9.75a9.72 9.72 0 01-2.266 6.25h1.56a.75.75 0 01.729.576l.956 4a.75.75 0 01-.729.924H4a.75.75 0 01-.724-.945l1.078-4a.75.75 0 01.724-.555l1.439.001A9.72 9.72 0 014.25 14c0-5.385 4.365-9.75 9.75-9.75zm8.451 17.5H5.652l-.673 2.5h18.07l-.598-2.5zM14 5.75a8.25 8.25 0 00-5.384 14.5h10.768l.188-.165A8.25 8.25 0 0014 5.75z"/></g></svg>