<svg width="28px" height="56px" viewBox="0 0 28 56" version="1.1" xmlns="http://www.w3.org/2000/svg" xmlns:xlink="http://www.w3.org/1999/xlink"><g fill="none" fill-rule="nonzero"><path fill="#93979B" d="M13.187 31.69c.296.146.543.372.715.651l.08.144 2.445 4.954 2.059.202-.146 1.493-2.889-.282-2.814-5.703a.25.25 0 00-.411-.056l-.038.056-2.804 5.682-6.271.912a.25.25 0 00-.18.373l.041.053 4.538 4.423-1.071 6.246a.25.25 0 00.3.286l.063-.023 5.603-2.945 1.849.94-.68 1.336-1.158-.588-4.916 2.585a1.75 1.75 0 01-2.288-.604l-.076-.13a1.75 1.75 0 01-.196-.948l.02-.163.938-5.468-3.973-3.873a1.75 1.75 0 01-.143-2.348l.112-.126a1.75 1.75 0 01.84-.48l.161-.03 5.49-.799 2.456-4.975a1.75 1.75 0 012.344-.795zm8.936 9.25a.75.75 0 01.029.979l-.076.08-.826.754v2.298l2.205-.716.46-1a.75.75 0 01.89-.406l.105.039a.75.75 0 01.407.89l-.039.104-.312.678.656.373a.75.75 0 01-.64 1.352l-.1-.048-.973-.552-2.186.71 1.364 1.876 1.093.129a.75.75 0 01.662.721l-.005.111a.75.75 0 01-.721.662l-.111-.004-.742-.087-.151.738a.75.75 0 01-1.484-.19l.014-.11.225-1.097-1.35-1.86-1.363 1.877.215 1.08a.75.75 0 01-.482.853l-.107.03a.75.75 0 01-.852-.482l-.03-.107-.147-.731-.748.083a.75.75 0 01-.278-1.47l.11-.02 1.111-.125 1.35-1.86-2.205-.716-.96.538a.75.75 0 01-.96-.194l-.06-.093a.75.75 0 01.194-.96l.092-.06.65-.366-.31-.686a.75.75 0 011.312-.718l.053.097.463 1.019 2.184.71.001-2.319-.809-.747a.75.75 0 01-.112-.973l.07-.087a.75.75 0 01.972-.111l.087.069.549.506.556-.508a.75.75 0 011.06.047z"/><path fill="#030316" d="M10.843 4.485a1.75 1.75 0 013.06-.144l.079.144 2.445 4.954 2.059.202-.146 1.493-2.889-.282-2.814-5.703a.25.25 0 00-.411-.056l-.038.056-2.804 5.682-6.271.912a.25.25 0 00-.18.373l.041.053 4.538 4.423-1.071 6.246a.25.25 0 00.3.286l.063-.023 5.603-2.945 1.849.94-.68 1.336-1.158-.588-4.916 2.585a1.75 1.75 0 01-2.288-.604l-.076-.13a1.75 1.75 0 01-.196-.948l.02-.163.938-5.468-3.973-3.873a1.75 1.75 0 01-.143-2.348l.112-.126a1.75 1.75 0 01.84-.48l.161-.03 5.49-.799 2.456-4.975z"/><path fill="#0087CD" d="M22.123 12.94a.75.75 0 01.029.979l-.076.08-.826.754v2.298l2.205-.716.46-1a.75.75 0 01.89-.406l.105.039a.75.75 0 01.407.89l-.039.104-.312.678.656.373a.75.75 0 01-.64 1.352l-.1-.048-.973-.552-2.186.71 1.364 1.876 1.093.129a.75.75 0 01.662.721l-.005.111a.75.75 0 01-.721.662l-.111-.004-.742-.087-.151.738a.75.75 0 01-1.484-.19l.014-.11.225-1.097-1.35-1.86-1.363 1.877.215 1.08a.75.75 0 01-.482.853l-.107.03a.75.75 0 01-.852-.482l-.03-.107-.147-.731-.748.083a.75.75 0 01-.278-1.47l.11-.02 1.111-.125 1.35-1.86-2.205-.716-.96.538a.75.75 0 01-.96-.194l-.06-.093a.75.75 0 01.194-.96l.092-.06.65-.366-.31-.686a.75.75 0 011.312-.718l.053.097.463 1.019 2.184.71.001-2.319-.809-.747a.75.75 0 01-.112-.973l.07-.087a.75.75 0 01.972-.111l.087.069.549.506.556-.508a.75.75 0 011.06.047z"/></g></svg>