<svg width="28px" height="56px" viewBox="0 0 28 56" version="1.1" xmlns="http://www.w3.org/2000/svg" xmlns:xlink="http://www.w3.org/1999/xlink"><g fill="none" fill-rule="nonzero"><path fill="#7D8185" d="M26.228 34.5l-2.437 6.883 2.37 6.15L1.5 50.528V37.596L26.228 34.5zM2.999 43.062L3 48.833l6.224-.755-3.187-.615 2.098-1.826-2.724.237.311-2.268L3.927 45.5 3 43.062zm21.003-6.772L3.024 38.916l.003.005 1.452 3.815 3.367-3.55-.694 5.03 5.447-.473-3.254 2.83 4.741.914 9.983-1.21-1.877-4.87 1.81-5.117z"/><path fill="#0087CD" d="M2.06 10.487a.75.75 0 01.924.342l.043.092 1.452 3.815 3.367-3.55-.694 5.03 5.447-.473-3.254 2.83 4.776.922a.75.75 0 01.607.777l-.013.101a.75.75 0 01-.777.607l-.101-.013-7.8-1.504 2.098-1.826-2.724.237.311-2.268L3.927 17.5l-2.302-6.045a.75.75 0 01.434-.968z"/><path fill="#030316" d="M23.791 13.383L26.228 6.5 1.5 9.596v12.931l24.661-2.993-2.37-6.15zM3 10.92L24.002 8.29l-1.81 5.117 1.877 4.87L3 20.832V10.92z"/></g></svg>