<svg width="28px" height="56px" viewBox="0 0 28 56" version="1.1" xmlns="http://www.w3.org/2000/svg" xmlns:xlink="http://www.w3.org/1999/xlink"><g fill="none" fill-rule="nonzero"><path fill="#93979B" d="M23.502 52.5a.75.75 0 01.102 1.492l-.102.007h-21a.75.75 0 01-.101-1.493l.101-.007h21zm-6.23-13.752a.75.75 0 01.102 1.493l-.102.007-11.28-.001A1.25 1.25 0 004.75 41.37l-.007.128-.007 6.216c0 .647.493 1.18 1.123 1.244l.128.006 14.001.001a1.25 1.25 0 001.244-1.123l.006-.128.007-4.467a.75.75 0 011.494-.1l.006.103-.007 4.465a2.75 2.75 0 01-2.582 2.745l-.168.005H5.985A2.75 2.75 0 013.24 47.88l-.005-.168.007-6.216a2.75 2.75 0 012.583-2.745l.168-.005h11.28zm2.472-1.715c1.84 0 3.327 1.515 3.327 3.375a.75.75 0 01-1.5 0c0-1.038-.821-1.875-1.827-1.875a.75.75 0 010-1.5zm0-3.5c3.708 0 6.708 3.056 6.708 6.818a.75.75 0 01-1.5 0c0-2.94-2.335-5.318-5.208-5.318a.75.75 0 010-1.5zM9.5 30.25a1.25 1.25 0 01.84 2.176l2.296 3.677a.75.75 0 01-1.206.884l-.066-.09L9.5 33.914l-1.864 2.983a.75.75 0 01-.935.29l-.098-.051a.75.75 0 01-.29-.935l.051-.098 2.298-3.676A1.25 1.25 0 019.5 30.25z"/><path fill="#030316" d="M23.502 24.5a.75.75 0 01.102 1.492l-.102.007h-21a.75.75 0 01-.101-1.493l.101-.007h21zM5.992 10.746h11.28a.75.75 0 01.102 1.494l-.102.007-11.28-.001A1.25 1.25 0 004.75 13.37l-.007.128-.007 6.216c0 .647.493 1.18 1.123 1.244l.128.006 14.001.001a1.25 1.25 0 001.244-1.123l.006-.128.007-4.467a.75.75 0 011.494-.1l.006.103-.007 4.465a2.75 2.75 0 01-2.582 2.745l-.168.005H5.985A2.75 2.75 0 013.24 19.88l-.005-.168.007-6.216a2.75 2.75 0 012.583-2.745l.168-.005zm13.752-1.714c1.84 0 3.327 1.515 3.327 3.375a.75.75 0 01-1.5 0c0-1.038-.821-1.875-1.827-1.875a.75.75 0 010-1.5zm0-3.5c3.708 0 6.708 3.056 6.708 6.818a.75.75 0 01-1.5 0c0-2.94-2.335-5.318-5.208-5.318a.75.75 0 010-1.5z"/><path fill="#E36002" d="M9.5 2.25a1.25 1.25 0 01.84 2.176l2.296 3.677a.75.75 0 01-1.206.884l-.066-.09L9.5 5.914 7.636 8.897a.75.75 0 01-.935.29l-.098-.051a.75.75 0 01-.29-.935l.051-.098 2.298-3.676A1.25 1.25 0 019.5 2.25z"/></g></svg>