<svg width="28px" height="56px" viewBox="0 0 28 56" version="1.1" xmlns="http://www.w3.org/2000/svg" xmlns:xlink="http://www.w3.org/1999/xlink"><g fill="none" fill-rule="nonzero"><path fill="#93979B" d="M23.25 30.25A.75.75 0 0124 31c0 .79-.16 1.544-.448 2.23.44.059.894-.124 1.168-.497l.077-.117.057-.085a.75.75 0 011.242.835 2.75 2.75 0 01-3.338 1.204 5.753 5.753 0 01-3.063 1.997 6.713 6.713 0 011.657 4.196l.004.237v.48l.144-.003a3.25 3.25 0 013.245 3.065l.005.185v3a3.25 3.25 0 01-4.522 2.991c-.298.532-.714.984-1.247 1.393-.554.426-1.275.675-2.097.79A2.002 2.002 0 0113 52.227a2 2 0 013.817-.837c.523-.088.959-.244 1.25-.468.436-.335.742-.683.94-1.11a3.231 3.231 0 01-.749-1.85l-.008-.235v-3c0-1.195.645-2.24 1.606-2.804V41a5.25 5.25 0 00-5.033-5.246l-.217-.004h-1.343a5.25 5.25 0 00-5.246 5.034L8.013 41v.85a3.25 3.25 0 011.73 2.67l.007.207v3a3.25 3.25 0 01-6.495.184l-.005-.184v-3a3.25 3.25 0 013.25-3.25h.013V41c0-1.733.653-3.314 1.727-4.509a5.746 5.746 0 01-2.802-1.921 2.75 2.75 0 01-3.337-1.204.75.75 0 011.169-.916l.073.081.057.085.076.117c.275.373.728.556 1.169.496A5.732 5.732 0 014.196 31a.75.75 0 111.5 0c0 1.054.384 2.019 1.02 2.762l.151.167.035-.012.122-.04a1.25 1.25 0 00.789-1.366l-.027-.125-.02-.1a.75.75 0 011.469-.288 2.749 2.749 0 01-.99 2.898c.461.201.964.323 1.492.349a6.696 6.696 0 013.29-.99l.236-.005h1.343c1.301 0 2.516.368 3.546 1.005l.098-.005c.605 0 1.18-.126 1.7-.354a2.749 2.749 0 01-.988-2.898.75.75 0 011.468.288l-.02.1a1.25 1.25 0 00.763 1.492l.122.039.034.012A4.236 4.236 0 0022.5 31a.75.75 0 01.75-.75zM6.5 42.977a1.75 1.75 0 00-1.744 1.606l-.006.144v3a1.75 1.75 0 003.494.143l.006-.143v-3a1.75 1.75 0 00-1.75-1.75zm15 0a1.75 1.75 0 00-1.744 1.606l-.006.144v3a1.75 1.75 0 003.494.143l.006-.143v-3a1.75 1.75 0 00-1.75-1.75z"/><path fill="#E36002" d="M23.25 2.25A.75.75 0 0124 3c0 .79-.16 1.544-.448 2.23.44.059.894-.124 1.168-.497l.077-.117.057-.085a.75.75 0 011.242.835 2.75 2.75 0 01-3.338 1.204 5.74 5.74 0 01-4.508 2.18.75.75 0 110-1.5c.605 0 1.18-.126 1.7-.354a2.749 2.749 0 01-.988-2.898.75.75 0 011.468.288l-.02.1a1.25 1.25 0 00.763 1.492l.122.039.034.012A4.236 4.236 0 0022.5 3a.75.75 0 01.75-.75zm-18.304 0a.75.75 0 01.75.75c0 1.135.446 2.167 1.171 2.93l.035-.013.122-.04a1.25 1.25 0 00.762-1.491l-.02-.1a.75.75 0 011.469-.288 2.749 2.749 0 01-.99 2.898c.522.228 1.097.354 1.701.354a.75.75 0 010 1.5 5.74 5.74 0 01-4.508-2.18 2.75 2.75 0 01-3.337-1.204.75.75 0 011.242-.835l.057.085.076.117c.275.373.728.556 1.169.496A5.732 5.732 0 014.196 3a.75.75 0 01.75-.75z"/><path fill="#030316" d="M14.606 6.25a6.75 6.75 0 016.746 6.513l.004.237v.48l.144-.003a3.25 3.25 0 013.245 3.065l.005.185v3a3.25 3.25 0 01-4.522 2.991c-.298.532-.714.984-1.247 1.393-.554.426-1.275.675-2.097.79A2.002 2.002 0 0113 24.227a2 2 0 013.817-.837c.523-.088.959-.244 1.25-.468.436-.335.742-.683.94-1.11a3.233 3.233 0 01-.757-2.085v-3c0-1.195.645-2.24 1.606-2.804V13a5.25 5.25 0 00-5.033-5.246l-.217-.004h-1.343a5.25 5.25 0 00-5.246 5.034L8.013 13v.85a3.25 3.25 0 011.737 2.877v3a3.25 3.25 0 01-6.5 0v-3a3.25 3.25 0 013.263-3.25V13a6.75 6.75 0 016.513-6.746l.237-.004h1.343zM6.5 14.977a1.75 1.75 0 00-1.75 1.75v3a1.75 1.75 0 003.5 0v-3a1.75 1.75 0 00-1.75-1.75zm15 0a1.75 1.75 0 00-1.75 1.75v3a1.75 1.75 0 003.5 0v-3a1.75 1.75 0 00-1.75-1.75z"/></g></svg>