<svg width="28px" height="56px" viewBox="0 0 28 56" version="1.1" xmlns="http://www.w3.org/2000/svg" xmlns:xlink="http://www.w3.org/1999/xlink"><g fill="none" fill-rule="nonzero"><path fill="#93979B" d="M17.402 39.027l.09.051 8.072 5.295a.75.75 0 01.119 1.158l-.083.07-8.073 6a.75.75 0 01-1.19-.495L16.33 51v-1.847H6.894a.75.75 0 01-.724-.55l-.02-.098-.006-.102v-2.34l-.974.347v1.242a.75.75 0 01-.396.662l-.095.042-2.045.751a.75.75 0 01-.61-1.366l.093-.042 1.553-.57v-1.247a.75.75 0 01.403-.665l.096-.042 1.974-.704v-2.376a.75.75 0 01.649-.743l.102-.007h9.436v-1.64a.75.75 0 011.072-.678zm.428 2.067v8.413l6.013-4.47-6.013-3.943zm-1.5 1.751H7.642v4.808h8.686v-4.808zm-2.676-10.952a.75.75 0 01.108.973l-.07.087-1.97 2.12h8.7v1.5h-8.556l1.796 1.72a.75.75 0 01.094.975l-.07.086a.75.75 0 01-.976.093l-.085-.07-3.677-3.524 3.646-3.921a.75.75 0 011.06-.039z"/><path fill="#DA005E" d="M13.654 3.893a.75.75 0 01.108.973l-.07.087-1.97 2.12h8.7v1.5h-8.556l1.796 1.72a.75.75 0 01.094.975l-.07.086a.75.75 0 01-.976.093l-.085-.07-3.677-3.524 3.646-3.921a.75.75 0 011.06-.039z"/><path fill="#030316" d="M16.33 11.705a.75.75 0 011.161-.627l8.073 5.295a.75.75 0 01.036 1.229l-8.073 6A.75.75 0 0116.33 23v-1.847H6.894a.75.75 0 01-.744-.648l-.006-.102v-2.34l-.974.347v1.242a.75.75 0 01-.396.662l-.095.042-2.045.751a.75.75 0 01-.61-1.366l.093-.042 1.553-.57v-1.247a.75.75 0 01.403-.665l.096-.042 1.974-.704v-2.376a.75.75 0 01.649-.743l.102-.007h9.436zm1.5 9.802l6.013-4.47-6.013-3.943v8.413zm-1.5-6.662H7.642v4.808h8.686v-4.808z"/></g></svg>