<svg width="14" height="14" viewBox="0 0 14 14" fill="none" xmlns="http://www.w3.org/2000/svg">
<path fill-rule="evenodd" clip-rule="evenodd" d="M0 0.777778V13.2222C0 13.6516 0.348444 14 0.777778 14H13.2222C13.6516 14 14 13.6516 14 13.2222V0.777778C14 0.348444 13.6516 0 13.2222 0H0.777778C0.348444 0 0 0.348444 0 0.777778ZM10.0629 11.3746C10.7878 11.3746 11.375 10.7874 11.375 10.0625C11.375 9.3376 10.7878 8.75038 10.0629 8.75038C9.33722 8.75038 8.75 9.3376 8.75 10.0625C8.75 10.7874 9.33722 11.3746 10.0629 11.3746ZM5.25 3.93749C5.25 4.66238 4.66278 5.2496 3.93789 5.2496C3.21222 5.2496 2.625 4.66238 2.625 3.93749C2.625 3.2126 3.21222 2.62538 3.93789 2.62538C4.66278 2.62538 5.25 3.2126 5.25 3.93749ZM11.1324 2.78612C10.8235 2.4876 10.3312 2.49599 10.0326 2.80487L2.96808 10.1144L2.90464 10.1888C2.67263 10.4979 2.70171 10.9386 2.98683 11.2142C3.2957 11.5127 3.78809 11.5043 4.08661 11.1955L11.1512 3.8859L11.2146 3.81154C11.4466 3.50243 11.4175 3.06168 11.1324 2.78612Z" fill="#08A652"/>
</svg>
